<svg xmlns="http://www.w3.org/2000/svg" version="1.1" xmlns:xlink="http://www.w3.org/1999/xlink" xmlns:svgjs="http://svgjs.dev/svgjs" width="1000" height="623" viewBox="0 0 1000 623"><g transform="matrix(1,0,0,1,-0.6060606060606233,0.2522267206477409)"><svg viewBox="0 0 396 247" data-background-color="#ffffff" preserveAspectRatio="xMidYMid meet" height="623" width="1000" xmlns="http://www.w3.org/2000/svg" xmlns:xlink="http://www.w3.org/1999/xlink"><g id="tight-bounds" transform="matrix(1,0,0,1,0.2400000000000091,-0.09999999999999432)"><svg viewBox="0 0 395.52 247.2" height="247.2" width="395.52"><g><svg></svg></g><g><svg viewBox="0 0 395.52 247.2" height="247.2" width="395.52"><g transform="matrix(1,0,0,1,75.54432,48.87384137142857)"><svg viewBox="0 0 244.43135999999998 149.45231725714285" height="149.45231725714285" width="244.43135999999998"><g><svg viewBox="0 0 244.43135999999998 149.45231725714285" height="149.45231725714285" width="244.43135999999998"><g><svg viewBox="0 0 244.43135999999998 149.45231725714285" height="149.45231725714285" width="244.43135999999998"><g><svg viewBox="0 0 244.43135999999998 149.45231725714285" height="149.45231725714285" width="244.43135999999998"><g id="textblocktransform"><svg viewBox="0 0 244.43135999999998 149.45231725714285" height="149.45231725714285" width="244.43135999999998" id="textblock"><g><svg viewBox="0 0 244.43135999999998 149.45231725714285" height="149.45231725714285" width="244.43135999999998"><g transform="matrix(1,0,0,1,0,0)"><svg width="244.43135999999998" viewBox="0.6600000262260437 -36.060001373291016 59.810001373291016 36.56999969482422" height="149.45231725714285" data-palette-color="#0080ff"><path d="M13.87 0.51L13.87 0.51Q9.94 0.51 7.02-0.78 4.1-2.08 2.45-4.72 0.81-7.37 0.66-11.47L0.66-11.47 0.71-11.62 8.03-11.62Q8.25-8.15 9.57-6.87 10.89-5.59 12.99-5.59L12.99-5.59Q14.26-5.59 15.32-6.15 16.38-6.71 17.04-7.89 17.7-9.06 17.7-10.86L17.7-10.86 17.7-30.13 12.87-30.91 12.87-35.55 29.27-35.55 29.27-30.88 25.51-30.13 25.51-10.86Q25.51-7.35 24.15-4.8 22.78-2.25 20.19-0.87 17.6 0.51 13.87 0.51ZM47.95 0.51L47.95 0.51Q42.82 0.51 38.91-1.6 35.01-3.71 32.83-7.63 30.66-11.55 30.66-17.04L30.66-17.04 30.66-18.48Q30.66-23.61 32.7-27.58 34.74-31.54 38.55-33.8 42.36-36.06 47.58-36.06L47.58-36.06Q51.24-36.06 54.5-35.06 57.76-34.06 60.47-31.79L60.47-31.79 60.47-22.92 54.69-22.92 53.9-28.25Q53.07-28.81 52.15-29.22 51.22-29.64 50.14-29.86 49.07-30.08 47.82-30.08L47.82-30.08Q44.97-30.08 42.87-28.69 40.77-27.29 39.63-24.72 38.5-22.14 38.5-18.53L38.5-18.53 38.5-17.04Q38.5-13.55 39.67-10.94 40.84-8.33 43-6.88 45.16-5.44 48.07-5.44L48.07-5.44Q49.56-5.44 51.07-5.77 52.59-6.1 53.9-6.64L53.9-6.64 54.71-11.65 60.47-11.65 60.47-2.93Q58.37-1.51 55.17-0.5 51.98 0.51 47.95 0.51Z" opacity="1" transform="matrix(1,0,0,1,0,0)" fill="#0080ff" class="undefined-text-0" data-fill-palette-color="primary" id="text-0"></path></svg></g></svg></g></svg></g></svg></g></svg></g></svg></g></svg></g><path d="M138.552 42.874L138.552 0.285 385.182 0.285 385.182 246.915 138.552 246.915 138.552 204.326 152.03 204.326 152.03 233.437 371.704 233.437 371.704 13.763 152.03 13.763 152.03 42.874Z" fill="#0080ff" stroke="transparent" data-fill-palette-color="primary"></path></svg></g><defs></defs></svg><rect width="395.52" height="247.2" fill="none" stroke="none" visibility="hidden"></rect></g></svg></g></svg>